<?xml version="1.0"?>
<svg xmlns="http://www.w3.org/2000/svg" xmlns:xlink="http://www.w3.org/1999/xlink" xmlns:svgjs="http://svgjs.com/svgjs" version="1.1" width="512" height="512" x="0" y="0" viewBox="0 0 512 512" style="enable-background:new 0 0 512 512" xml:space="preserve" class=""><g><g xmlns="http://www.w3.org/2000/svg"><g><path d="m432 336h-400c-13.255 0-24-10.745-24-24v-280c0-13.255 10.745-24 24-24h400c13.255 0 24 10.745 24 24v280c0 13.255-10.745 24-24 24z" fill="#f14d6b" data-original="#afefa5" style="" class=""/><path d="m454.53 320h-398.53c-13.233 0-24-10.766-24-24v-176h-24v200c0 13.255 10.745 24 24 24h400c13.255 0 24-10.745 24-24z" fill="#cfd5d1" data-original="#8ce1a4" style="" class=""/><path d="m32 8c-13.255 0-24 10.745-24 24v88h56c30.928 0 56-25.072 56-56v-56z" fill="#ef2064" data-original="#9bd7ee" style="" class=""/><circle cx="304" cy="304" fill="#dad8db" r="96" data-original="#dad8db" style="" class=""/><circle cx="304" cy="304" fill="#ffffff" r="72" data-original="#ffffff" style="" class=""/><path d="m304.013 248c-.004 0-.008.002-.013.002s-.008-.002-.013-.002c-22.085.007-39.987 17.913-39.987 40 0 25.277 23.002 53.622 34.121 65.846 1.578 1.735 3.729 2.602 5.879 2.602s4.301-.867 5.879-2.602c11.119-12.224 34.121-40.569 34.121-65.846 0-22.087-17.902-39.993-39.987-40z" fill="#a5192f" data-original="#ff7d91" style="" class=""/><path d="m499.314 499.314c-6.248 6.248-16.379 6.248-22.627 0l-75.882-75.882c-6.248-6.248-6.248-16.379 0-22.627 6.248-6.248 16.379-6.248 22.627 0l75.882 75.882c6.248 6.248 6.248 16.378 0 22.627z" fill="#dad8db" data-original="#dad8db" style="" class=""/><path d="m412.687 435.313 64 64c6.248 6.249 16.379 6.249 22.627 0 6.249-6.248 6.249-16.379 0-22.627l-64-64z" fill="#f14d6b" data-original="#afefa5" style="" class=""/><path d="m288 283.552c0-11.827 6.624-22.64 17.286-28.22l10.342-5.412c-3.698-1.13-7.546-1.918-11.615-1.92-.005 0-.009.002-.013.002s-.008-.002-.013-.002c-22.085.007-39.987 17.913-39.987 40 0 25.277 23.002 53.622 34.121 65.846 1.578 1.735 3.729 2.602 5.879 2.602s4.301-.867 5.879-2.602c2.576-2.833 5.801-6.559 9.219-10.884-9.948-11.095-31.098-37.283-31.098-59.41z" fill="#cf425d" data-original="#e15f78" style="" class=""/><path d="m8 32v88h24v-112c-13.255 0-24 10.745-24 24z" fill="#e1dbe0" data-original="#7dc3ee" style="" class=""/></g><g><path d="m505.107 471.828-76.035-76.035c-4.445-4.445-10.354-6.893-16.64-6.893-3.696 0-7.259.852-10.473 2.453l-19.462-19.462c15.752-18.191 25.293-41.899 25.293-67.794 0-57.177-46.517-103.693-103.694-103.693s-103.693 46.516-103.693 103.693 46.517 103.694 103.693 103.694c25.895 0 49.603-9.542 67.794-25.293l19.462 19.462c-1.601 3.214-2.453 6.777-2.453 10.473 0 6.286 2.448 12.195 6.893 16.64l76.035 76.035c4.445 4.445 10.354 6.893 16.64 6.893s12.195-2.448 16.64-6.892c4.445-4.445 6.893-10.354 6.893-16.64s-2.448-12.197-6.893-16.641zm-289.704-167.731c0-48.906 39.788-88.693 88.693-88.693s88.694 39.788 88.694 88.693-39.788 88.694-88.694 88.694-88.693-39.789-88.693-88.694zm188.497 108.336c0-2.279.887-4.421 2.5-6.033 1.611-1.612 3.753-2.499 6.033-2.499 2.279 0 4.421.887 6.033 2.499l6.603 6.603-12.066 12.066-6.603-6.603c-1.612-1.612-2.5-3.755-2.5-6.033zm90.601 82.067c0 .001 0 .001 0 0-1.612 1.612-3.754 2.5-6.033 2.5s-4.421-.887-6.033-2.499l-58.826-58.826 12.066-12.066 58.826 58.826c1.612 1.611 2.499 3.754 2.499 6.033s-.887 4.421-2.499 6.032z" fill="#ffffff" data-original="#000000" style="" class=""/><path d="m199.887 239.452c4.142 0 7.5-3.358 7.5-7.5s-3.358-7.5-7.5-7.5h-128.774v-65.454c46.79-3.645 84.24-41.095 87.885-87.885h65.454v128.774c0 4.142 3.358 7.5 7.5 7.5s7.5-3.358 7.5-7.5v-128.774h37.49l171.961 171.961v77.055c0 9.125-7.423 16.548-16.548 16.548h-3.507c-4.142 0-7.5 3.358-7.5 7.5s3.358 7.5 7.5 7.5h3.507c17.396 0 31.548-14.152 31.548-31.548v-288.581c0-17.396-14.152-31.548-31.548-31.548h-400.807c-17.396 0-31.548 14.152-31.548 31.548v288.581c0 17.396 14.152 31.548 31.548 31.548h148.799c4.142 0 7.5-3.358 7.5-7.5s-3.358-7.5-7.5-7.5h-109.234v-97.226h128.774zm-184.887-80.161h41.113v65.161h-41.113zm283.155-88.178h150.749v150.749zm150.748-39.565v24.564h-289.612v-41.112h273.064c9.125 0 16.548 7.423 16.548 16.548zm-417.355-16.548h80.677v16.548c0 4.142 3.358 7.5 7.5 7.5s7.5-3.358 7.5-7.5v-16.548h17.065v48.613c0 44.486-36.192 80.678-80.678 80.678h-48.612v-17.065h48.613c35.076 0 63.613-28.537 63.613-63.613 0-4.142-3.358-7.5-7.5-7.5s-7.5 3.358-7.5 7.5c0 26.805-21.808 48.613-48.613 48.613h-48.613v-80.678c0-9.125 7.423-16.548 16.548-16.548zm24.565 321.677h-24.565c-9.125 0-16.548-7.423-16.548-16.548v-80.677h41.113z" fill="#ffffff" data-original="#000000" style="" class=""/><path d="m337.821 265.133c-3.794 1.662-5.523 6.084-3.862 9.878 1.803 4.119 2.718 8.51 2.718 13.053 0 22.96-22.219 49.957-32.585 61.302-3.667-4.011-8.818-9.989-13.957-17.099-12.181-16.849-18.619-32.135-18.619-44.204 0-17.965 14.616-32.581 32.581-32.581 3.059 0 6.083.422 8.99 1.254 3.981 1.138 8.134-1.164 9.275-5.146 1.14-3.982-1.164-8.134-5.146-9.275-4.25-1.217-8.663-1.833-13.119-1.833-26.236 0-47.581 21.345-47.581 47.581 0 36.166 40.638 75.865 42.368 77.538 1.454 1.405 3.333 2.107 5.213 2.107s3.759-.703 5.213-2.107c1.729-1.672 42.368-41.372 42.368-77.538 0-6.626-1.338-13.043-3.978-19.07-1.662-3.793-6.084-5.524-9.879-3.86z" fill="#ffffff" data-original="#000000" style="" class=""/><path d="m296.597 288.064v8.016c0 4.142 3.358 7.5 7.5 7.5s7.5-3.358 7.5-7.5v-8.016c0-4.142-3.358-7.5-7.5-7.5s-7.5 3.358-7.5 7.5z" fill="#ffffff" data-original="#000000" style="" class=""/></g></g></g></svg>
